<mxfile host="app.diagrams.net" modified="2021-09-28T12:12:04.554Z" agent="5.0 (Windows NT 10.0; Win64; x64) AppleWebKit/537.36 (KHTML, like Gecko) Chrome/92.0.4515.159 Safari/537.36" etag="fJD2mN3p3FSShr3C9Mr2" version="15.1.1" type="github" pages="2">
  <diagram id="kgpKYQtTHZ0yAKxKKP6v" name="Recherche Profil sur mot clé">
    <mxGraphModel dx="1038" dy="579" grid="1" gridSize="10" guides="1" tooltips="1" connect="1" arrows="1" fold="1" page="1" pageScale="1" pageWidth="850" pageHeight="1100" math="0" shadow="0">
      <root>
        <mxCell id="0" />
        <mxCell id="1" parent="0" />
        <mxCell id="3nuBFxr9cyL0pnOWT2aG-1" value="Recruteur" style="shape=umlLifeline;perimeter=lifelinePerimeter;container=1;collapsible=0;recursiveResize=0;rounded=0;shadow=0;strokeWidth=1;" parent="1" vertex="1">
          <mxGeometry x="120" y="80" width="100" height="300" as="geometry" />
        </mxCell>
        <mxCell id="3nuBFxr9cyL0pnOWT2aG-2" value="" style="points=[];perimeter=orthogonalPerimeter;rounded=0;shadow=0;strokeWidth=1;" parent="3nuBFxr9cyL0pnOWT2aG-1" vertex="1">
          <mxGeometry x="45" y="70" width="10" height="190" as="geometry" />
        </mxCell>
        <mxCell id="3nuBFxr9cyL0pnOWT2aG-5" value="Je Recrute" style="shape=umlLifeline;perimeter=lifelinePerimeter;container=1;collapsible=0;recursiveResize=0;rounded=0;shadow=0;strokeWidth=1;" parent="1" vertex="1">
          <mxGeometry x="300" y="80" width="100" height="300" as="geometry" />
        </mxCell>
        <mxCell id="3nuBFxr9cyL0pnOWT2aG-6" value="" style="points=[];perimeter=orthogonalPerimeter;rounded=0;shadow=0;strokeWidth=1;" parent="3nuBFxr9cyL0pnOWT2aG-5" vertex="1">
          <mxGeometry x="45" y="80" width="10" height="160" as="geometry" />
        </mxCell>
        <mxCell id="3nuBFxr9cyL0pnOWT2aG-8" value="Recherche de profils&#xa;sur mot-clés" style="verticalAlign=bottom;endArrow=block;entryX=0;entryY=0;shadow=0;strokeWidth=1;" parent="1" source="3nuBFxr9cyL0pnOWT2aG-2" target="3nuBFxr9cyL0pnOWT2aG-6" edge="1">
          <mxGeometry relative="1" as="geometry">
            <mxPoint x="275" y="160" as="sourcePoint" />
          </mxGeometry>
        </mxCell>
        <mxCell id="3nuBFxr9cyL0pnOWT2aG-9" value="Met en forme et affiche" style="verticalAlign=bottom;endArrow=block;shadow=0;strokeWidth=1;" parent="1" source="3nuBFxr9cyL0pnOWT2aG-6" target="3nuBFxr9cyL0pnOWT2aG-1" edge="1">
          <mxGeometry relative="1" as="geometry">
            <mxPoint x="240" y="200" as="sourcePoint" />
            <mxPoint x="180" y="200" as="targetPoint" />
            <Array as="points">
              <mxPoint x="280" y="270" />
            </Array>
          </mxGeometry>
        </mxCell>
        <mxCell id="SSfer-_pcpWnABtd_4vk-1" value="Actor" style="shape=umlActor;verticalLabelPosition=bottom;verticalAlign=top;html=1;outlineConnect=0;" vertex="1" parent="1">
          <mxGeometry x="110" y="130" width="30" height="60" as="geometry" />
        </mxCell>
        <mxCell id="SSfer-_pcpWnABtd_4vk-2" value="" style="html=1;points=[];perimeter=orthogonalPerimeter;" vertex="1" parent="1">
          <mxGeometry x="540" y="180" width="10" height="80" as="geometry" />
        </mxCell>
        <mxCell id="SSfer-_pcpWnABtd_4vk-3" value="Interroge SDR" style="html=1;verticalAlign=bottom;endArrow=block;entryX=0;entryY=0;" edge="1" target="SSfer-_pcpWnABtd_4vk-2" parent="1">
          <mxGeometry relative="1" as="geometry">
            <mxPoint x="355" y="180" as="sourcePoint" />
          </mxGeometry>
        </mxCell>
        <mxCell id="SSfer-_pcpWnABtd_4vk-4" value="Retourne la liste &lt;br&gt;des cartes de visites" style="html=1;verticalAlign=bottom;endArrow=open;dashed=1;endSize=8;exitX=0;exitY=0.95;" edge="1" source="SSfer-_pcpWnABtd_4vk-2" parent="1">
          <mxGeometry relative="1" as="geometry">
            <mxPoint x="355" y="256" as="targetPoint" />
          </mxGeometry>
        </mxCell>
        <mxCell id="SSfer-_pcpWnABtd_4vk-8" value="SI Pôle emploi" style="shape=umlLifeline;perimeter=lifelinePerimeter;container=1;collapsible=0;recursiveResize=0;rounded=0;shadow=0;strokeWidth=1;" vertex="1" parent="1">
          <mxGeometry x="495" y="80" width="100" height="300" as="geometry" />
        </mxCell>
        <mxCell id="SSfer-_pcpWnABtd_4vk-9" value="" style="points=[];perimeter=orthogonalPerimeter;rounded=0;shadow=0;strokeWidth=1;" vertex="1" parent="SSfer-_pcpWnABtd_4vk-8">
          <mxGeometry x="45" y="80" width="10" height="160" as="geometry" />
        </mxCell>
      </root>
    </mxGraphModel>
  </diagram>
  <diagram name="Visualise un profil" id="8F3A2N7qJ0S-PY4cl9JT">
    <mxGraphModel dx="716" dy="399" grid="1" gridSize="10" guides="1" tooltips="1" connect="1" arrows="1" fold="1" page="1" pageScale="1" pageWidth="850" pageHeight="1100" math="0" shadow="0">
      <root>
        <mxCell id="19wj_vLRL3tHCuc2VROK-0" />
        <mxCell id="19wj_vLRL3tHCuc2VROK-1" parent="19wj_vLRL3tHCuc2VROK-0" />
        <mxCell id="19wj_vLRL3tHCuc2VROK-2" value="Recruteur" style="shape=umlLifeline;perimeter=lifelinePerimeter;container=1;collapsible=0;recursiveResize=0;rounded=0;shadow=0;strokeWidth=1;" vertex="1" parent="19wj_vLRL3tHCuc2VROK-1">
          <mxGeometry x="120" y="80" width="100" height="300" as="geometry" />
        </mxCell>
        <mxCell id="19wj_vLRL3tHCuc2VROK-3" value="" style="points=[];perimeter=orthogonalPerimeter;rounded=0;shadow=0;strokeWidth=1;" vertex="1" parent="19wj_vLRL3tHCuc2VROK-2">
          <mxGeometry x="45" y="70" width="10" height="190" as="geometry" />
        </mxCell>
        <mxCell id="19wj_vLRL3tHCuc2VROK-4" value="Je Recrute" style="shape=umlLifeline;perimeter=lifelinePerimeter;container=1;collapsible=0;recursiveResize=0;rounded=0;shadow=0;strokeWidth=1;" vertex="1" parent="19wj_vLRL3tHCuc2VROK-1">
          <mxGeometry x="300" y="80" width="100" height="300" as="geometry" />
        </mxCell>
        <mxCell id="19wj_vLRL3tHCuc2VROK-5" value="" style="points=[];perimeter=orthogonalPerimeter;rounded=0;shadow=0;strokeWidth=1;" vertex="1" parent="19wj_vLRL3tHCuc2VROK-4">
          <mxGeometry x="45" y="80" width="10" height="160" as="geometry" />
        </mxCell>
        <mxCell id="19wj_vLRL3tHCuc2VROK-6" value="Clique sur une carte de visite" style="verticalAlign=bottom;endArrow=block;entryX=0;entryY=0;shadow=0;strokeWidth=1;" edge="1" parent="19wj_vLRL3tHCuc2VROK-1" source="19wj_vLRL3tHCuc2VROK-3" target="19wj_vLRL3tHCuc2VROK-5">
          <mxGeometry relative="1" as="geometry">
            <mxPoint x="275" y="160" as="sourcePoint" />
          </mxGeometry>
        </mxCell>
        <mxCell id="19wj_vLRL3tHCuc2VROK-7" value="Met en forme et affiche" style="verticalAlign=bottom;endArrow=block;shadow=0;strokeWidth=1;" edge="1" parent="19wj_vLRL3tHCuc2VROK-1" source="19wj_vLRL3tHCuc2VROK-5" target="19wj_vLRL3tHCuc2VROK-2">
          <mxGeometry relative="1" as="geometry">
            <mxPoint x="240" y="200" as="sourcePoint" />
            <mxPoint x="180" y="200" as="targetPoint" />
            <Array as="points">
              <mxPoint x="280" y="270" />
            </Array>
          </mxGeometry>
        </mxCell>
        <mxCell id="19wj_vLRL3tHCuc2VROK-8" value="Actor" style="shape=umlActor;verticalLabelPosition=bottom;verticalAlign=top;html=1;outlineConnect=0;" vertex="1" parent="19wj_vLRL3tHCuc2VROK-1">
          <mxGeometry x="110" y="130" width="30" height="60" as="geometry" />
        </mxCell>
        <mxCell id="19wj_vLRL3tHCuc2VROK-9" value="" style="html=1;points=[];perimeter=orthogonalPerimeter;" vertex="1" parent="19wj_vLRL3tHCuc2VROK-1">
          <mxGeometry x="540" y="180" width="10" height="80" as="geometry" />
        </mxCell>
        <mxCell id="19wj_vLRL3tHCuc2VROK-10" value="Interroge SDR depuis l&#39;IdRCI" style="html=1;verticalAlign=bottom;endArrow=block;entryX=0;entryY=0;" edge="1" parent="19wj_vLRL3tHCuc2VROK-1" target="19wj_vLRL3tHCuc2VROK-9">
          <mxGeometry relative="1" as="geometry">
            <mxPoint x="355" y="180" as="sourcePoint" />
          </mxGeometry>
        </mxCell>
        <mxCell id="19wj_vLRL3tHCuc2VROK-11" value="Retourne tous les données &lt;br&gt;du candidat" style="html=1;verticalAlign=bottom;endArrow=open;dashed=1;endSize=8;exitX=0;exitY=0.95;" edge="1" parent="19wj_vLRL3tHCuc2VROK-1" source="19wj_vLRL3tHCuc2VROK-9">
          <mxGeometry relative="1" as="geometry">
            <mxPoint x="355" y="256" as="targetPoint" />
          </mxGeometry>
        </mxCell>
        <mxCell id="19wj_vLRL3tHCuc2VROK-12" value="SI Pôle emploi" style="shape=umlLifeline;perimeter=lifelinePerimeter;container=1;collapsible=0;recursiveResize=0;rounded=0;shadow=0;strokeWidth=1;" vertex="1" parent="19wj_vLRL3tHCuc2VROK-1">
          <mxGeometry x="495" y="80" width="100" height="300" as="geometry" />
        </mxCell>
        <mxCell id="19wj_vLRL3tHCuc2VROK-13" value="" style="points=[];perimeter=orthogonalPerimeter;rounded=0;shadow=0;strokeWidth=1;" vertex="1" parent="19wj_vLRL3tHCuc2VROK-12">
          <mxGeometry x="45" y="80" width="10" height="160" as="geometry" />
        </mxCell>
      </root>
    </mxGraphModel>
  </diagram>
</mxfile>
